<svg width="1411" height="666" viewBox="0 0 1411 666" fill="none" xmlns="http://www.w3.org/2000/svg">
<rect width="1411" height="666" rx="24" fill="url(#paint0_linear_290_642)"/>
<path fill-rule="evenodd" clip-rule="evenodd" d="M287.076 276.618C286.636 276.349 286.084 276.343 285.638 276.601L235.125 305.851L233.011 302.213L235.125 305.851C234.192 306.391 234.192 307.736 235.125 308.276L285.736 337.583C286.169 337.834 286.703 337.836 287.138 337.588L336.637 309.348C337.564 308.819 337.585 307.492 336.674 306.935L287.076 276.618ZM281.411 269.325C284.533 267.517 288.397 267.562 291.475 269.444L341.073 299.761C347.447 303.657 347.307 312.949 340.818 316.651L333.773 320.67L341.51 325.668C347.695 329.664 347.443 338.78 341.047 342.428L333.773 346.578L341.51 351.576C347.695 355.572 347.443 364.688 341.047 368.336L291.318 396.707C288.276 398.442 284.54 398.43 281.509 396.675L231.079 367.473C224.479 363.651 224.567 354.105 231.237 350.406L238.954 346.126L231.079 341.566C224.479 337.743 224.567 328.197 231.237 324.498L238.954 320.218L230.898 315.553C224.367 311.771 224.367 302.356 230.898 298.574L281.411 269.325ZM247.549 325.837C247.123 325.598 246.605 325.597 246.178 325.833L235.329 331.851C234.376 332.379 234.363 333.743 235.306 334.289L285.736 363.491C286.169 363.742 286.703 363.744 287.138 363.496L336.867 335.125C337.781 334.604 337.817 333.301 336.933 332.731L326.523 326.005C326.085 325.723 325.526 325.705 325.071 325.961L291.239 344.96C288.247 346.641 284.593 346.641 281.601 344.96L247.549 325.837ZM247.549 351.745C247.123 351.506 246.605 351.505 246.178 351.741L235.329 357.759C234.376 358.287 234.363 359.651 235.306 360.197L285.736 389.399C286.169 389.65 286.703 389.652 287.138 389.404L336.867 361.033C337.781 360.512 337.817 359.209 336.933 358.639L326.523 351.913C326.085 351.631 325.526 351.613 325.071 351.869L291.239 370.868C288.247 372.549 284.593 372.549 281.601 370.868L247.549 351.745Z" fill="#3A3A3A"/>
<path d="M395.304 322V278.364H411.668C415.02 278.364 417.832 278.946 420.105 280.111C422.392 281.276 424.118 282.909 425.283 285.011C426.462 287.099 427.051 289.536 427.051 292.32C427.051 295.118 426.455 297.547 425.261 299.607C424.082 301.652 422.342 303.236 420.041 304.358C417.74 305.466 414.913 306.02 411.561 306.02H399.906V299.457H410.496C412.456 299.457 414.061 299.187 415.311 298.648C416.561 298.094 417.484 297.291 418.081 296.24C418.692 295.175 418.997 293.868 418.997 292.32C418.997 290.771 418.692 289.45 418.081 288.357C417.47 287.249 416.54 286.411 415.29 285.842C414.04 285.26 412.428 284.969 410.453 284.969H403.209V322H395.304ZM417.847 302.227L428.649 322H419.828L409.217 302.227H417.847ZM445.006 322.639C441.725 322.639 438.891 321.957 436.505 320.594C434.133 319.216 432.308 317.27 431.029 314.756C429.751 312.227 429.112 309.251 429.112 305.828C429.112 302.462 429.751 299.507 431.029 296.964C432.322 294.408 434.126 292.419 436.441 290.999C438.756 289.564 441.477 288.847 444.602 288.847C446.619 288.847 448.522 289.173 450.312 289.827C452.116 290.466 453.707 291.46 455.085 292.81C456.477 294.159 457.57 295.878 458.366 297.966C459.161 300.04 459.559 302.511 459.559 305.381V307.746H432.734V302.547H452.165C452.151 301.07 451.832 299.756 451.207 298.605C450.582 297.44 449.708 296.524 448.586 295.857C447.478 295.189 446.185 294.855 444.708 294.855C443.131 294.855 441.746 295.239 440.553 296.006C439.36 296.759 438.43 297.753 437.762 298.989C437.109 300.21 436.775 301.553 436.761 303.016V307.554C436.761 309.457 437.109 311.091 437.805 312.455C438.501 313.804 439.474 314.841 440.724 315.565C441.974 316.276 443.437 316.631 445.113 316.631C446.235 316.631 447.251 316.474 448.16 316.162C449.069 315.835 449.857 315.359 450.525 314.734C451.192 314.109 451.697 313.335 452.038 312.412L459.239 313.222C458.785 315.125 457.918 316.787 456.64 318.207C455.376 319.614 453.756 320.707 451.782 321.489C449.808 322.256 447.549 322.639 445.006 322.639ZM470.797 278.364V322H463.084V278.364H470.797ZM490.217 322.639C486.936 322.639 484.102 321.957 481.716 320.594C479.344 319.216 477.518 317.27 476.24 314.756C474.962 312.227 474.322 309.251 474.322 305.828C474.322 302.462 474.962 299.507 476.24 296.964C477.533 294.408 479.337 292.419 481.652 290.999C483.967 289.564 486.688 288.847 489.812 288.847C491.83 288.847 493.733 289.173 495.523 289.827C497.327 290.466 498.918 291.46 500.295 292.81C501.688 294.159 502.781 295.878 503.577 297.966C504.372 300.04 504.77 302.511 504.77 305.381V307.746H477.945V302.547H497.376C497.362 301.07 497.043 299.756 496.418 298.605C495.793 297.44 494.919 296.524 493.797 295.857C492.689 295.189 491.396 294.855 489.919 294.855C488.342 294.855 486.957 295.239 485.764 296.006C484.571 296.759 483.641 297.753 482.973 298.989C482.32 300.21 481.986 301.553 481.972 303.016V307.554C481.972 309.457 482.32 311.091 483.016 312.455C483.712 313.804 484.685 314.841 485.935 315.565C487.185 316.276 488.648 316.631 490.324 316.631C491.446 316.631 492.462 316.474 493.371 316.162C494.28 315.835 495.068 315.359 495.736 314.734C496.403 314.109 496.908 313.335 497.249 312.412L504.45 313.222C503.996 315.125 503.129 316.787 501.851 318.207C500.587 319.614 498.967 320.707 496.993 321.489C495.018 322.256 492.76 322.639 490.217 322.639ZM517.713 322.661C515.639 322.661 513.771 322.291 512.109 321.553C510.461 320.8 509.154 319.692 508.189 318.229C507.237 316.766 506.761 314.962 506.761 312.817C506.761 310.97 507.102 309.443 507.784 308.236C508.466 307.028 509.396 306.062 510.575 305.338C511.754 304.614 513.082 304.067 514.559 303.697C516.051 303.314 517.592 303.037 519.183 302.866C521.1 302.668 522.656 302.49 523.849 302.334C525.042 302.163 525.909 301.908 526.449 301.567C527.002 301.212 527.279 300.665 527.279 299.926V299.798C527.279 298.193 526.804 296.95 525.852 296.07C524.9 295.189 523.529 294.749 521.74 294.749C519.85 294.749 518.352 295.161 517.244 295.984C516.15 296.808 515.412 297.781 515.028 298.903L507.826 297.881C508.395 295.892 509.332 294.23 510.639 292.895C511.946 291.545 513.544 290.537 515.433 289.869C517.322 289.188 519.41 288.847 521.697 288.847C523.274 288.847 524.843 289.031 526.406 289.401C527.968 289.77 529.396 290.381 530.689 291.233C531.981 292.071 533.018 293.214 533.799 294.663C534.595 296.112 534.993 297.923 534.993 300.097V322H527.578V317.504H527.322C526.853 318.413 526.193 319.266 525.341 320.061C524.502 320.842 523.444 321.474 522.166 321.957C520.902 322.426 519.417 322.661 517.713 322.661ZM519.716 316.993C521.264 316.993 522.606 316.687 523.743 316.077C524.879 315.452 525.752 314.628 526.363 313.605C526.988 312.582 527.301 311.467 527.301 310.26V306.403C527.059 306.602 526.647 306.787 526.065 306.957C525.497 307.128 524.858 307.277 524.147 307.405C523.437 307.533 522.734 307.646 522.038 307.746C521.342 307.845 520.738 307.93 520.227 308.001C519.076 308.158 518.047 308.413 517.137 308.768C516.228 309.124 515.511 309.621 514.985 310.26C514.46 310.885 514.197 311.695 514.197 312.689C514.197 314.109 514.716 315.182 515.752 315.906C516.789 316.631 518.11 316.993 519.716 316.993ZM565.615 297.923L558.583 298.69C558.385 297.98 558.037 297.312 557.539 296.688C557.056 296.062 556.403 295.558 555.579 295.175C554.755 294.791 553.747 294.599 552.554 294.599C550.949 294.599 549.599 294.947 548.505 295.643C547.426 296.339 546.893 297.241 546.907 298.349C546.893 299.301 547.241 300.075 547.951 300.672C548.676 301.268 549.869 301.759 551.531 302.142L557.113 303.335C560.21 304.003 562.511 305.061 564.017 306.51C565.537 307.959 566.304 309.855 566.318 312.199C566.304 314.259 565.7 316.077 564.507 317.653C563.328 319.216 561.687 320.437 559.585 321.318C557.483 322.199 555.068 322.639 552.341 322.639C548.335 322.639 545.11 321.801 542.667 320.125C540.224 318.435 538.768 316.084 538.299 313.072L545.821 312.348C546.162 313.825 546.886 314.94 547.994 315.693C549.102 316.446 550.544 316.822 552.319 316.822C554.152 316.822 555.622 316.446 556.73 315.693C557.852 314.94 558.413 314.01 558.413 312.902C558.413 311.964 558.051 311.19 557.326 310.58C556.616 309.969 555.508 309.5 554.002 309.173L548.42 308.001C545.281 307.348 542.958 306.247 541.453 304.699C539.947 303.136 539.201 301.162 539.216 298.776C539.201 296.759 539.748 295.011 540.856 293.534C541.978 292.043 543.534 290.892 545.522 290.082C547.525 289.259 549.833 288.847 552.447 288.847C556.282 288.847 559.301 289.663 561.502 291.297C563.718 292.93 565.089 295.139 565.615 297.923ZM584.167 322.639C580.885 322.639 578.051 321.957 575.665 320.594C573.293 319.216 571.468 317.27 570.189 314.756C568.911 312.227 568.272 309.251 568.272 305.828C568.272 302.462 568.911 299.507 570.189 296.964C571.482 294.408 573.286 292.419 575.601 290.999C577.917 289.564 580.637 288.847 583.762 288.847C585.779 288.847 587.682 289.173 589.472 289.827C591.276 290.466 592.867 291.46 594.245 292.81C595.637 294.159 596.73 295.878 597.526 297.966C598.321 300.04 598.719 302.511 598.719 305.381V307.746H571.894V302.547H591.326C591.311 301.07 590.992 299.756 590.367 298.605C589.742 297.44 588.868 296.524 587.746 295.857C586.638 295.189 585.346 294.855 583.868 294.855C582.292 294.855 580.907 295.239 579.713 296.006C578.52 296.759 577.59 297.753 576.922 298.989C576.269 300.21 575.935 301.553 575.921 303.016V307.554C575.921 309.457 576.269 311.091 576.965 312.455C577.661 313.804 578.634 314.841 579.884 315.565C581.134 316.276 582.597 316.631 584.273 316.631C585.395 316.631 586.411 316.474 587.32 316.162C588.229 315.835 589.017 315.359 589.685 314.734C590.353 314.109 590.857 313.335 591.198 312.412L598.4 313.222C597.945 315.125 597.078 316.787 595.8 318.207C594.536 319.614 592.917 320.707 590.942 321.489C588.968 322.256 586.709 322.639 584.167 322.639ZM614.127 334.273V289.273H621.712V294.685H622.16C622.558 293.889 623.119 293.044 623.843 292.149C624.567 291.24 625.548 290.466 626.783 289.827C628.019 289.173 629.596 288.847 631.513 288.847C634.042 288.847 636.322 289.493 638.353 290.786C640.398 292.064 642.018 293.96 643.211 296.474C644.418 298.974 645.022 302.043 645.022 305.679C645.022 309.273 644.433 312.327 643.254 314.841C642.075 317.355 640.469 319.273 638.438 320.594C636.407 321.915 634.106 322.575 631.535 322.575C629.66 322.575 628.104 322.263 626.869 321.638C625.633 321.013 624.638 320.26 623.886 319.379C623.147 318.484 622.572 317.639 622.16 316.844H621.84V334.273H614.127ZM621.691 305.636C621.691 307.753 621.989 309.607 622.586 311.197C623.197 312.788 624.07 314.031 625.207 314.926C626.357 315.807 627.749 316.247 629.383 316.247C631.087 316.247 632.515 315.793 633.665 314.884C634.816 313.96 635.683 312.703 636.265 311.112C636.862 309.507 637.16 307.682 637.16 305.636C637.16 303.605 636.869 301.801 636.286 300.224C635.704 298.648 634.837 297.412 633.687 296.517C632.536 295.622 631.102 295.175 629.383 295.175C627.735 295.175 626.336 295.608 625.185 296.474C624.035 297.341 623.161 298.555 622.565 300.118C621.982 301.68 621.691 303.52 621.691 305.636ZM648.627 322V289.273H656.106V294.727H656.447C657.043 292.838 658.066 291.382 659.515 290.359C660.978 289.322 662.647 288.804 664.522 288.804C664.948 288.804 665.424 288.825 665.95 288.868C666.489 288.896 666.937 288.946 667.292 289.017V296.112C666.965 295.999 666.447 295.899 665.737 295.814C665.04 295.714 664.366 295.665 663.712 295.665C662.306 295.665 661.042 295.97 659.92 296.581C658.812 297.178 657.938 298.009 657.299 299.074C656.66 300.139 656.34 301.368 656.34 302.76V322H648.627ZM682.344 322.639C679.148 322.639 676.378 321.936 674.034 320.53C671.691 319.124 669.873 317.156 668.58 314.628C667.301 312.099 666.662 309.145 666.662 305.764C666.662 302.384 667.301 299.422 668.58 296.879C669.873 294.337 671.691 292.362 674.034 290.956C676.378 289.55 679.148 288.847 682.344 288.847C685.54 288.847 688.31 289.55 690.654 290.956C692.998 292.362 694.809 294.337 696.087 296.879C697.38 299.422 698.026 302.384 698.026 305.764C698.026 309.145 697.38 312.099 696.087 314.628C694.809 317.156 692.998 319.124 690.654 320.53C688.31 321.936 685.54 322.639 682.344 322.639ZM682.387 316.46C684.12 316.46 685.569 315.984 686.733 315.033C687.898 314.067 688.765 312.774 689.333 311.155C689.915 309.536 690.206 307.732 690.206 305.743C690.206 303.74 689.915 301.929 689.333 300.31C688.765 298.676 687.898 297.376 686.733 296.411C685.569 295.445 684.12 294.962 682.387 294.962C680.611 294.962 679.134 295.445 677.955 296.411C676.79 297.376 675.917 298.676 675.334 300.31C674.766 301.929 674.482 303.74 674.482 305.743C674.482 307.732 674.766 309.536 675.334 311.155C675.917 312.774 676.79 314.067 677.955 315.033C679.134 315.984 680.611 316.46 682.387 316.46ZM717.915 289.273V295.239H699.101V289.273H717.915ZM703.746 281.432H711.459V312.156C711.459 313.193 711.615 313.989 711.928 314.543C712.254 315.082 712.68 315.452 713.206 315.651C713.732 315.849 714.314 315.949 714.953 315.949C715.436 315.949 715.876 315.913 716.274 315.842C716.686 315.771 716.999 315.707 717.212 315.651L718.511 321.68C718.099 321.822 717.51 321.979 716.743 322.149C715.99 322.32 715.067 322.419 713.973 322.447C712.041 322.504 710.301 322.213 708.753 321.574C707.205 320.92 705.976 319.912 705.067 318.548C704.172 317.185 703.732 315.48 703.746 313.435V281.432ZM735.502 322.639C732.221 322.639 729.387 321.957 727.001 320.594C724.629 319.216 722.804 317.27 721.525 314.756C720.247 312.227 719.608 309.251 719.608 305.828C719.608 302.462 720.247 299.507 721.525 296.964C722.818 294.408 724.622 292.419 726.937 290.999C729.252 289.564 731.973 288.847 735.098 288.847C737.115 288.847 739.018 289.173 740.808 289.827C742.612 290.466 744.203 291.46 745.581 292.81C746.973 294.159 748.066 295.878 748.862 297.966C749.657 300.04 750.055 302.511 750.055 305.381V307.746H723.23V302.547H742.662C742.647 301.07 742.328 299.756 741.703 298.605C741.078 297.44 740.204 296.524 739.082 295.857C737.974 295.189 736.681 294.855 735.204 294.855C733.627 294.855 732.243 295.239 731.049 296.006C729.856 296.759 728.926 297.753 728.258 298.989C727.605 300.21 727.271 301.553 727.257 303.016V307.554C727.257 309.457 727.605 311.091 728.301 312.455C728.997 313.804 729.97 314.841 731.22 315.565C732.47 316.276 733.933 316.631 735.609 316.631C736.731 316.631 737.747 316.474 738.656 316.162C739.565 315.835 740.353 315.359 741.021 314.734C741.689 314.109 742.193 313.335 742.534 312.412L749.735 313.222C749.281 315.125 748.414 316.787 747.136 318.207C745.872 319.614 744.252 320.707 742.278 321.489C740.304 322.256 738.045 322.639 735.502 322.639ZM767.856 322.639C764.589 322.639 761.783 321.922 759.44 320.487C757.11 319.053 755.313 317.071 754.049 314.543C752.799 312 752.174 309.074 752.174 305.764C752.174 302.44 752.813 299.507 754.092 296.964C755.37 294.408 757.174 292.419 759.504 290.999C761.847 289.564 764.617 288.847 767.813 288.847C770.469 288.847 772.82 289.337 774.866 290.317C776.925 291.283 778.566 292.653 779.788 294.429C781.009 296.19 781.705 298.25 781.876 300.608H774.504C774.205 299.031 773.495 297.717 772.373 296.666C771.265 295.601 769.781 295.068 767.92 295.068C766.343 295.068 764.958 295.494 763.765 296.347C762.572 297.185 761.641 298.392 760.974 299.969C760.32 301.545 759.994 303.435 759.994 305.636C759.994 307.866 760.32 309.784 760.974 311.389C761.627 312.98 762.543 314.209 763.722 315.075C764.915 315.928 766.315 316.354 767.92 316.354C769.056 316.354 770.072 316.141 770.967 315.714C771.876 315.274 772.636 314.642 773.246 313.818C773.857 312.994 774.276 311.993 774.504 310.814H781.876C781.691 313.129 781.009 315.182 779.83 316.972C778.651 318.747 777.046 320.139 775.015 321.148C772.984 322.142 770.597 322.639 767.856 322.639ZM801.551 289.273V295.239H782.738V289.273H801.551ZM787.382 281.432H795.096V312.156C795.096 313.193 795.252 313.989 795.564 314.543C795.891 315.082 796.317 315.452 796.843 315.651C797.368 315.849 797.951 315.949 798.59 315.949C799.073 315.949 799.513 315.913 799.911 315.842C800.323 315.771 800.635 315.707 800.848 315.651L802.148 321.68C801.736 321.822 801.147 321.979 800.38 322.149C799.627 322.32 798.703 322.419 797.61 322.447C795.678 322.504 793.938 322.213 792.39 321.574C790.841 320.92 789.613 319.912 788.703 318.548C787.809 317.185 787.368 315.48 787.382 313.435V281.432ZM805.002 322V289.273H812.715V322H805.002ZM808.88 284.628C807.658 284.628 806.607 284.223 805.727 283.413C804.846 282.589 804.406 281.602 804.406 280.452C804.406 279.287 804.846 278.3 805.727 277.49C806.607 276.666 807.658 276.254 808.88 276.254C810.116 276.254 811.167 276.666 812.033 277.49C812.914 278.3 813.354 279.287 813.354 280.452C813.354 281.602 812.914 282.589 812.033 283.413C811.167 284.223 810.116 284.628 808.88 284.628ZM831.922 322.639C828.726 322.639 825.956 321.936 823.613 320.53C821.269 319.124 819.451 317.156 818.158 314.628C816.88 312.099 816.24 309.145 816.24 305.764C816.24 302.384 816.88 299.422 818.158 296.879C819.451 294.337 821.269 292.362 823.613 290.956C825.956 289.55 828.726 288.847 831.922 288.847C835.118 288.847 837.888 289.55 840.232 290.956C842.576 292.362 844.387 294.337 845.665 296.879C846.958 299.422 847.604 302.384 847.604 305.764C847.604 309.145 846.958 312.099 845.665 314.628C844.387 317.156 842.576 319.124 840.232 320.53C837.888 321.936 835.118 322.639 831.922 322.639ZM831.965 316.46C833.698 316.46 835.147 315.984 836.311 315.033C837.476 314.067 838.343 312.774 838.911 311.155C839.493 309.536 839.784 307.732 839.784 305.743C839.784 303.74 839.493 301.929 838.911 300.31C838.343 298.676 837.476 297.376 836.311 296.411C835.147 295.445 833.698 294.962 831.965 294.962C830.189 294.962 828.712 295.445 827.533 296.411C826.368 297.376 825.495 298.676 824.912 300.31C824.344 301.929 824.06 303.74 824.06 305.743C824.06 307.732 824.344 309.536 824.912 311.155C825.495 312.774 826.368 314.067 827.533 315.033C828.712 315.984 830.189 316.46 831.965 316.46ZM858.864 302.824V322H851.151V289.273H858.523V294.834H858.906C859.659 293.001 860.859 291.545 862.507 290.466C864.169 289.386 866.222 288.847 868.665 288.847C870.923 288.847 872.891 289.33 874.567 290.295C876.257 291.261 877.564 292.661 878.487 294.493C879.425 296.325 879.886 298.548 879.872 301.162V322H872.159V302.355C872.159 300.168 871.591 298.456 870.455 297.22C869.332 295.984 867.777 295.366 865.788 295.366C864.439 295.366 863.239 295.665 862.188 296.261C861.151 296.844 860.334 297.689 859.737 298.797C859.155 299.905 858.864 301.247 858.864 302.824ZM912.938 289.273V295.239H894.124V289.273H912.938ZM898.769 281.432H906.482V312.156C906.482 313.193 906.638 313.989 906.951 314.543C907.278 315.082 907.704 315.452 908.229 315.651C908.755 315.849 909.337 315.949 909.977 315.949C910.46 315.949 910.9 315.913 911.298 315.842C911.71 315.771 912.022 315.707 912.235 315.651L913.535 321.68C913.123 321.822 912.533 321.979 911.766 322.149C911.013 322.32 910.09 322.419 908.996 322.447C907.065 322.504 905.325 322.213 903.776 321.574C902.228 320.92 900.999 319.912 900.09 318.548C899.195 317.185 898.755 315.48 898.769 313.435V281.432ZM924.805 302.824V322H917.092V278.364H924.635V294.834H925.018C925.785 292.987 926.971 291.531 928.576 290.466C930.196 289.386 932.255 288.847 934.755 288.847C937.028 288.847 939.01 289.322 940.7 290.274C942.39 291.226 943.697 292.618 944.62 294.45C945.558 296.283 946.027 298.52 946.027 301.162V322H938.314V302.355C938.314 300.153 937.745 298.442 936.609 297.22C935.487 295.984 933.91 295.366 931.879 295.366C930.515 295.366 929.294 295.665 928.214 296.261C927.149 296.844 926.311 297.689 925.7 298.797C925.103 299.905 924.805 301.247 924.805 302.824ZM960.306 322.661C958.233 322.661 956.365 322.291 954.703 321.553C953.055 320.8 951.748 319.692 950.782 318.229C949.831 316.766 949.355 314.962 949.355 312.817C949.355 310.97 949.696 309.443 950.377 308.236C951.059 307.028 951.99 306.062 953.169 305.338C954.348 304.614 955.676 304.067 957.153 303.697C958.645 303.314 960.186 303.037 961.777 302.866C963.694 302.668 965.25 302.49 966.443 302.334C967.636 302.163 968.502 301.908 969.042 301.567C969.596 301.212 969.873 300.665 969.873 299.926V299.798C969.873 298.193 969.397 296.95 968.446 296.07C967.494 295.189 966.123 294.749 964.333 294.749C962.444 294.749 960.946 295.161 959.838 295.984C958.744 296.808 958.005 297.781 957.622 298.903L950.42 297.881C950.988 295.892 951.926 294.23 953.233 292.895C954.539 291.545 956.137 290.537 958.027 289.869C959.916 289.188 962.004 288.847 964.291 288.847C965.868 288.847 967.437 289.031 969 289.401C970.562 289.77 971.99 290.381 973.282 291.233C974.575 292.071 975.612 293.214 976.393 294.663C977.189 296.112 977.586 297.923 977.586 300.097V322H970.172V317.504H969.916C969.447 318.413 968.787 319.266 967.934 320.061C967.096 320.842 966.038 321.474 964.76 321.957C963.495 322.426 962.011 322.661 960.306 322.661ZM962.309 316.993C963.858 316.993 965.2 316.687 966.336 316.077C967.473 315.452 968.346 314.628 968.957 313.605C969.582 312.582 969.895 311.467 969.895 310.26V306.403C969.653 306.602 969.241 306.787 968.659 306.957C968.091 307.128 967.451 307.277 966.741 307.405C966.031 307.533 965.328 307.646 964.632 307.746C963.936 307.845 963.332 307.93 962.821 308.001C961.67 308.158 960.64 308.413 959.731 308.768C958.822 309.124 958.105 309.621 957.579 310.26C957.054 310.885 956.791 311.695 956.791 312.689C956.791 314.109 957.309 315.182 958.346 315.906C959.383 316.631 960.704 316.993 962.309 316.993ZM998.684 289.273V295.239H979.87V289.273H998.684ZM984.515 281.432H992.228V312.156C992.228 313.193 992.385 313.989 992.697 314.543C993.024 315.082 993.45 315.452 993.975 315.651C994.501 315.849 995.083 315.949 995.723 315.949C996.206 315.949 996.646 315.913 997.044 315.842C997.456 315.771 997.768 315.707 997.981 315.651L999.281 321.68C998.869 321.822 998.279 321.979 997.512 322.149C996.76 322.32 995.836 322.419 994.743 322.447C992.811 322.504 991.071 322.213 989.522 321.574C987.974 320.92 986.745 319.912 985.836 318.548C984.941 317.185 984.501 315.48 984.515 313.435V281.432ZM1014.02 322V289.273H1021.39V294.834H1021.77C1022.46 292.959 1023.58 291.496 1025.16 290.445C1026.74 289.379 1028.62 288.847 1030.81 288.847C1033.02 288.847 1034.89 289.386 1036.41 290.466C1037.95 291.531 1039.02 292.987 1039.65 294.834H1039.99C1040.72 293.016 1041.94 291.567 1043.66 290.487C1045.39 289.393 1047.44 288.847 1049.81 288.847C1052.82 288.847 1055.28 289.798 1057.19 291.702C1059.09 293.605 1060.04 296.382 1060.04 300.033V322H1052.31V301.226C1052.31 299.195 1051.77 297.71 1050.69 296.773C1049.61 295.821 1048.29 295.345 1046.72 295.345C1044.86 295.345 1043.41 295.928 1042.36 297.092C1041.32 298.243 1040.8 299.741 1040.8 301.588V322H1033.24V300.906C1033.24 299.216 1032.73 297.866 1031.7 296.858C1030.69 295.849 1029.37 295.345 1027.74 295.345C1026.63 295.345 1025.62 295.629 1024.71 296.197C1023.8 296.751 1023.08 297.54 1022.54 298.562C1022 299.571 1021.73 300.75 1021.73 302.099V322H1014.02ZM1074.28 322.661C1072.21 322.661 1070.34 322.291 1068.68 321.553C1067.03 320.8 1065.72 319.692 1064.76 318.229C1063.81 316.766 1063.33 314.962 1063.33 312.817C1063.33 310.97 1063.67 309.443 1064.35 308.236C1065.04 307.028 1065.97 306.062 1067.15 305.338C1068.32 304.614 1069.65 304.067 1071.13 303.697C1072.62 303.314 1074.16 303.037 1075.75 302.866C1077.67 302.668 1079.23 302.49 1080.42 302.334C1081.61 302.163 1082.48 301.908 1083.02 301.567C1083.57 301.212 1083.85 300.665 1083.85 299.926V299.798C1083.85 298.193 1083.37 296.95 1082.42 296.07C1081.47 295.189 1080.1 294.749 1078.31 294.749C1076.42 294.749 1074.92 295.161 1073.81 295.984C1072.72 296.808 1071.98 297.781 1071.6 298.903L1064.4 297.881C1064.96 295.892 1065.9 294.23 1067.21 292.895C1068.52 291.545 1070.11 290.537 1072 289.869C1073.89 289.188 1075.98 288.847 1078.27 288.847C1079.84 288.847 1081.41 289.031 1082.98 289.401C1084.54 289.77 1085.97 290.381 1087.26 291.233C1088.55 292.071 1089.59 293.214 1090.37 294.663C1091.17 296.112 1091.56 297.923 1091.56 300.097V322H1084.15V317.504H1083.89C1083.42 318.413 1082.76 319.266 1081.91 320.061C1081.07 320.842 1080.01 321.474 1078.74 321.957C1077.47 322.426 1075.99 322.661 1074.28 322.661ZM1076.29 316.993C1077.83 316.993 1079.18 316.687 1080.31 316.077C1081.45 315.452 1082.32 314.628 1082.93 313.605C1083.56 312.582 1083.87 311.467 1083.87 310.26V306.403C1083.63 306.602 1083.22 306.787 1082.64 306.957C1082.07 307.128 1081.43 307.277 1080.72 307.405C1080.01 307.533 1079.3 307.646 1078.61 307.746C1077.91 307.845 1077.31 307.93 1076.8 308.001C1075.65 308.158 1074.62 308.413 1073.71 308.768C1072.8 309.124 1072.08 309.621 1071.56 310.26C1071.03 310.885 1070.77 311.695 1070.77 312.689C1070.77 314.109 1071.29 315.182 1072.32 315.906C1073.36 316.631 1074.68 316.993 1076.29 316.993ZM1112.66 289.273V295.239H1093.85V289.273H1112.66ZM1098.49 281.432H1106.2V312.156C1106.2 313.193 1106.36 313.989 1106.67 314.543C1107 315.082 1107.43 315.452 1107.95 315.651C1108.48 315.849 1109.06 315.949 1109.7 315.949C1110.18 315.949 1110.62 315.913 1111.02 315.842C1111.43 315.771 1111.74 315.707 1111.96 315.651L1113.26 321.68C1112.85 321.822 1112.26 321.979 1111.49 322.149C1110.74 322.32 1109.81 322.419 1108.72 322.447C1106.79 322.504 1105.05 322.213 1103.5 321.574C1101.95 320.92 1100.72 319.912 1099.81 318.548C1098.92 317.185 1098.48 315.48 1098.49 313.435V281.432ZM1130.04 322.639C1126.77 322.639 1123.96 321.922 1121.62 320.487C1119.29 319.053 1117.49 317.071 1116.23 314.543C1114.98 312 1114.35 309.074 1114.35 305.764C1114.35 302.44 1114.99 299.507 1116.27 296.964C1117.55 294.408 1119.35 292.419 1121.68 290.999C1124.03 289.564 1126.8 288.847 1129.99 288.847C1132.65 288.847 1135 289.337 1137.05 290.317C1139.11 291.283 1140.75 292.653 1141.97 294.429C1143.19 296.19 1143.88 298.25 1144.06 300.608H1136.68C1136.38 299.031 1135.67 297.717 1134.55 296.666C1133.44 295.601 1131.96 295.068 1130.1 295.068C1128.52 295.068 1127.14 295.494 1125.94 296.347C1124.75 297.185 1123.82 298.392 1123.15 299.969C1122.5 301.545 1122.17 303.435 1122.17 305.636C1122.17 307.866 1122.5 309.784 1123.15 311.389C1123.81 312.98 1124.72 314.209 1125.9 315.075C1127.1 315.928 1128.49 316.354 1130.1 316.354C1131.24 316.354 1132.25 316.141 1133.15 315.714C1134.06 315.274 1134.82 314.642 1135.43 313.818C1136.04 312.994 1136.46 311.993 1136.68 310.814H1144.06C1143.87 313.129 1143.19 315.182 1142.01 316.972C1140.83 318.747 1139.23 320.139 1137.19 321.148C1135.16 322.142 1132.78 322.639 1130.04 322.639ZM1155.1 302.824V322H1147.39V278.364H1154.93V294.834H1155.31C1156.08 292.987 1157.27 291.531 1158.87 290.466C1160.49 289.386 1162.55 288.847 1165.05 288.847C1167.32 288.847 1169.31 289.322 1171 290.274C1172.69 291.226 1173.99 292.618 1174.92 294.45C1175.85 296.283 1176.32 298.52 1176.32 301.162V322H1168.61V302.355C1168.61 300.153 1168.04 298.442 1166.91 297.22C1165.78 295.984 1164.21 295.366 1162.18 295.366C1160.81 295.366 1159.59 295.665 1158.51 296.261C1157.45 296.844 1156.61 297.689 1156 298.797C1155.4 299.905 1155.1 301.247 1155.1 302.824ZM399.757 400.273C398.706 400.273 397.733 400.188 396.838 400.017C395.957 399.861 395.254 399.676 394.729 399.463L396.518 393.455C397.641 393.781 398.642 393.938 399.523 393.923C400.403 393.909 401.178 393.632 401.845 393.092C402.527 392.567 403.102 391.686 403.571 390.45L404.232 388.682L392.364 355.273H400.545L408.088 379.989H408.429L415.993 355.273H424.196L411.092 391.963C410.482 393.696 409.672 395.18 408.663 396.416C407.655 397.666 406.419 398.618 404.956 399.271C403.507 399.939 401.774 400.273 399.757 400.273ZM439.696 388.639C436.5 388.639 433.73 387.936 431.386 386.53C429.042 385.124 427.224 383.156 425.931 380.628C424.653 378.099 424.014 375.145 424.014 371.764C424.014 368.384 424.653 365.422 425.931 362.879C427.224 360.337 429.042 358.362 431.386 356.956C433.73 355.55 436.5 354.847 439.696 354.847C442.892 354.847 445.662 355.55 448.005 356.956C450.349 358.362 452.16 360.337 453.439 362.879C454.731 365.422 455.377 368.384 455.377 371.764C455.377 375.145 454.731 378.099 453.439 380.628C452.16 383.156 450.349 385.124 448.005 386.53C445.662 387.936 442.892 388.639 439.696 388.639ZM439.738 382.46C441.471 382.46 442.92 381.984 444.085 381.033C445.25 380.067 446.116 378.774 446.684 377.155C447.267 375.536 447.558 373.732 447.558 371.743C447.558 369.74 447.267 367.929 446.684 366.31C446.116 364.676 445.25 363.376 444.085 362.411C442.92 361.445 441.471 360.962 439.738 360.962C437.963 360.962 436.485 361.445 435.306 362.411C434.142 363.376 433.268 364.676 432.686 366.31C432.118 367.929 431.833 369.74 431.833 371.743C431.833 373.732 432.118 375.536 432.686 377.155C433.268 378.774 434.142 380.067 435.306 381.033C436.485 381.984 437.963 382.46 439.738 382.46ZM479.783 374.236V355.273H487.496V388H480.018V382.183H479.677C478.938 384.016 477.724 385.514 476.033 386.679C474.357 387.844 472.29 388.426 469.833 388.426C467.688 388.426 465.792 387.95 464.144 386.999C462.511 386.033 461.232 384.634 460.309 382.801C459.386 380.955 458.924 378.724 458.924 376.111V355.273H466.637V374.918C466.637 376.991 467.205 378.639 468.342 379.861C469.478 381.082 470.969 381.693 472.816 381.693C473.952 381.693 475.053 381.416 476.119 380.862C477.184 380.308 478.058 379.484 478.739 378.391C479.435 377.283 479.783 375.898 479.783 374.236ZM492.428 388V355.273H499.907V360.727H500.248C500.844 358.838 501.867 357.382 503.316 356.359C504.779 355.322 506.448 354.804 508.323 354.804C508.749 354.804 509.225 354.825 509.75 354.868C510.29 354.896 510.738 354.946 511.093 355.017V362.112C510.766 361.999 510.248 361.899 509.537 361.814C508.841 361.714 508.167 361.665 507.513 361.665C506.107 361.665 504.843 361.97 503.721 362.581C502.613 363.178 501.739 364.009 501.1 365.074C500.461 366.139 500.141 367.368 500.141 368.76V388H492.428ZM541.442 355.273V361.239H522.628V355.273H541.442ZM527.273 347.432H534.986V378.156C534.986 379.193 535.142 379.989 535.455 380.543C535.782 381.082 536.208 381.452 536.733 381.651C537.259 381.849 537.841 381.949 538.48 381.949C538.963 381.949 539.404 381.913 539.801 381.842C540.213 381.771 540.526 381.707 540.739 381.651L542.039 387.68C541.627 387.822 541.037 387.979 540.27 388.149C539.517 388.32 538.594 388.419 537.5 388.447C535.569 388.504 533.828 388.213 532.28 387.574C530.732 386.92 529.503 385.912 528.594 384.548C527.699 383.185 527.259 381.48 527.273 379.435V347.432ZM559.03 388.639C555.749 388.639 552.915 387.957 550.528 386.594C548.156 385.216 546.331 383.27 545.053 380.756C543.774 378.227 543.135 375.251 543.135 371.828C543.135 368.462 543.774 365.507 545.053 362.964C546.345 360.408 548.149 358.419 550.464 356.999C552.78 355.564 555.5 354.847 558.625 354.847C560.642 354.847 562.545 355.173 564.335 355.827C566.139 356.466 567.73 357.46 569.108 358.81C570.5 360.159 571.594 361.878 572.389 363.966C573.185 366.04 573.582 368.511 573.582 371.381V373.746H546.757V368.547H566.189C566.175 367.07 565.855 365.756 565.23 364.605C564.605 363.44 563.732 362.524 562.609 361.857C561.501 361.189 560.209 360.855 558.732 360.855C557.155 360.855 555.77 361.239 554.577 362.006C553.384 362.759 552.453 363.753 551.786 364.989C551.132 366.21 550.798 367.553 550.784 369.016V373.554C550.784 375.457 551.132 377.091 551.828 378.455C552.524 379.804 553.497 380.841 554.747 381.565C555.997 382.276 557.46 382.631 559.136 382.631C560.259 382.631 561.274 382.474 562.183 382.162C563.092 381.835 563.881 381.359 564.548 380.734C565.216 380.109 565.72 379.335 566.061 378.412L573.263 379.222C572.808 381.125 571.942 382.787 570.663 384.207C569.399 385.614 567.78 386.707 565.805 387.489C563.831 388.256 561.572 388.639 559.03 388.639ZM586.525 388.661C584.451 388.661 582.583 388.291 580.922 387.553C579.274 386.8 577.967 385.692 577.001 384.229C576.049 382.766 575.574 380.962 575.574 378.817C575.574 376.97 575.914 375.443 576.596 374.236C577.278 373.028 578.208 372.062 579.387 371.338C580.566 370.614 581.895 370.067 583.372 369.697C584.863 369.314 586.404 369.037 587.995 368.866C589.913 368.668 591.468 368.49 592.662 368.334C593.855 368.163 594.721 367.908 595.261 367.567C595.815 367.212 596.092 366.665 596.092 365.926V365.798C596.092 364.193 595.616 362.95 594.664 362.07C593.713 361.189 592.342 360.749 590.552 360.749C588.663 360.749 587.164 361.161 586.056 361.984C584.963 362.808 584.224 363.781 583.841 364.903L576.639 363.881C577.207 361.892 578.145 360.23 579.451 358.895C580.758 357.545 582.356 356.537 584.245 355.869C586.135 355.188 588.223 354.847 590.51 354.847C592.086 354.847 593.656 355.031 595.218 355.401C596.781 355.77 598.208 356.381 599.501 357.233C600.794 358.071 601.831 359.214 602.612 360.663C603.407 362.112 603.805 363.923 603.805 366.097V388H596.39V383.504H596.135C595.666 384.413 595.005 385.266 594.153 386.061C593.315 386.842 592.257 387.474 590.978 387.957C589.714 388.426 588.23 388.661 586.525 388.661ZM588.528 382.993C590.076 382.993 591.419 382.687 592.555 382.077C593.691 381.452 594.565 380.628 595.176 379.605C595.801 378.582 596.113 377.467 596.113 376.26V372.403C595.872 372.602 595.46 372.787 594.877 372.957C594.309 373.128 593.67 373.277 592.96 373.405C592.25 373.533 591.547 373.646 590.85 373.746C590.154 373.845 589.551 373.93 589.039 374.001C587.889 374.158 586.859 374.413 585.95 374.768C585.041 375.124 584.324 375.621 583.798 376.26C583.272 376.885 583.01 377.695 583.01 378.689C583.01 380.109 583.528 381.182 584.565 381.906C585.602 382.631 586.923 382.993 588.528 382.993ZM608.561 388V355.273H615.933V360.834H616.316C616.998 358.959 618.127 357.496 619.704 356.445C621.281 355.379 623.163 354.847 625.35 354.847C627.566 354.847 629.434 355.386 630.954 356.466C632.488 357.531 633.568 358.987 634.193 360.834H634.534C635.258 359.016 636.48 357.567 638.199 356.487C639.931 355.393 641.984 354.847 644.356 354.847C647.368 354.847 649.825 355.798 651.728 357.702C653.632 359.605 654.583 362.382 654.583 366.033V388H646.849V367.226C646.849 365.195 646.309 363.71 645.23 362.773C644.15 361.821 642.829 361.345 641.267 361.345C639.406 361.345 637.95 361.928 636.899 363.092C635.862 364.243 635.343 365.741 635.343 367.588V388H627.779V366.906C627.779 365.216 627.268 363.866 626.245 362.858C625.237 361.849 623.916 361.345 622.282 361.345C621.174 361.345 620.166 361.629 619.257 362.197C618.348 362.751 617.623 363.54 617.083 364.562C616.544 365.571 616.274 366.75 616.274 368.099V388H608.561ZM665.95 344.364V348.71C665.95 349.96 665.708 351.26 665.225 352.609C664.756 353.945 664.11 355.223 663.286 356.445C662.462 357.652 661.525 358.689 660.474 359.555L656.894 357.233C657.675 356.054 658.357 354.783 658.94 353.419C659.522 352.041 659.813 350.486 659.813 348.753V344.364H665.95ZM690.83 363.923L683.798 364.69C683.599 363.98 683.251 363.312 682.754 362.688C682.271 362.062 681.618 361.558 680.794 361.175C679.97 360.791 678.962 360.599 677.768 360.599C676.163 360.599 674.814 360.947 673.72 361.643C672.641 362.339 672.108 363.241 672.122 364.349C672.108 365.301 672.456 366.075 673.166 366.672C673.891 367.268 675.084 367.759 676.746 368.142L682.328 369.335C685.425 370.003 687.726 371.061 689.232 372.51C690.751 373.959 691.518 375.855 691.533 378.199C691.518 380.259 690.915 382.077 689.722 383.653C688.543 385.216 686.902 386.437 684.8 387.318C682.697 388.199 680.283 388.639 677.555 388.639C673.55 388.639 670.325 387.801 667.882 386.125C665.439 384.435 663.983 382.084 663.514 379.072L671.036 378.348C671.376 379.825 672.101 380.94 673.209 381.693C674.317 382.446 675.759 382.822 677.534 382.822C679.366 382.822 680.837 382.446 681.945 381.693C683.067 380.94 683.628 380.01 683.628 378.902C683.628 377.964 683.266 377.19 682.541 376.58C681.831 375.969 680.723 375.5 679.217 375.173L673.635 374.001C670.496 373.348 668.173 372.247 666.668 370.699C665.162 369.136 664.416 367.162 664.43 364.776C664.416 362.759 664.963 361.011 666.071 359.534C667.193 358.043 668.749 356.892 670.737 356.082C672.74 355.259 675.048 354.847 677.662 354.847C681.497 354.847 684.516 355.663 686.717 357.297C688.933 358.93 690.304 361.139 690.83 363.923ZM714.489 368.824V388H706.776V355.273H714.148V360.834H714.531C715.284 359.001 716.484 357.545 718.132 356.466C719.794 355.386 721.847 354.847 724.29 354.847C726.548 354.847 728.516 355.33 730.192 356.295C731.882 357.261 733.189 358.661 734.112 360.493C735.05 362.325 735.511 364.548 735.497 367.162V388H727.784V368.355C727.784 366.168 727.216 364.456 726.08 363.22C724.957 361.984 723.402 361.366 721.413 361.366C720.064 361.366 718.864 361.665 717.812 362.261C716.776 362.844 715.959 363.689 715.362 364.797C714.78 365.905 714.489 367.247 714.489 368.824ZM754.827 388.639C751.545 388.639 748.712 387.957 746.325 386.594C743.953 385.216 742.128 383.27 740.849 380.756C739.571 378.227 738.932 375.251 738.932 371.828C738.932 368.462 739.571 365.507 740.849 362.964C742.142 360.408 743.946 358.419 746.261 356.999C748.577 355.564 751.297 354.847 754.422 354.847C756.439 354.847 758.342 355.173 760.132 355.827C761.936 356.466 763.527 357.46 764.905 358.81C766.297 360.159 767.391 361.878 768.186 363.966C768.982 366.04 769.379 368.511 769.379 371.381V373.746H742.554V368.547H761.986C761.972 367.07 761.652 365.756 761.027 364.605C760.402 363.44 759.528 362.524 758.406 361.857C757.298 361.189 756.006 360.855 754.528 360.855C752.952 360.855 751.567 361.239 750.374 362.006C749.18 362.759 748.25 363.753 747.582 364.989C746.929 366.21 746.595 367.553 746.581 369.016V373.554C746.581 375.457 746.929 377.091 747.625 378.455C748.321 379.804 749.294 380.841 750.544 381.565C751.794 382.276 753.257 382.631 754.933 382.631C756.055 382.631 757.071 382.474 757.98 382.162C758.889 381.835 759.678 381.359 760.345 380.734C761.013 380.109 761.517 379.335 761.858 378.412L769.06 379.222C768.605 381.125 767.739 382.787 766.46 384.207C765.196 385.614 763.577 386.707 761.602 387.489C759.628 388.256 757.369 388.639 754.827 388.639ZM787.393 388.639C784.112 388.639 781.278 387.957 778.892 386.594C776.52 385.216 774.694 383.27 773.416 380.756C772.137 378.227 771.498 375.251 771.498 371.828C771.498 368.462 772.137 365.507 773.416 362.964C774.708 360.408 776.512 358.419 778.828 356.999C781.143 355.564 783.863 354.847 786.988 354.847C789.005 354.847 790.909 355.173 792.699 355.827C794.502 356.466 796.093 357.46 797.471 358.81C798.863 360.159 799.957 361.878 800.752 363.966C801.548 366.04 801.946 368.511 801.946 371.381V373.746H775.12V368.547H794.552C794.538 367.07 794.218 365.756 793.593 364.605C792.968 363.44 792.095 362.524 790.973 361.857C789.865 361.189 788.572 360.855 787.095 360.855C785.518 360.855 784.133 361.239 782.94 362.006C781.747 362.759 780.816 363.753 780.149 364.989C779.495 366.21 779.162 367.553 779.147 369.016V373.554C779.147 375.457 779.495 377.091 780.191 378.455C780.887 379.804 781.86 380.841 783.11 381.565C784.36 382.276 785.824 382.631 787.5 382.631C788.622 382.631 789.637 382.474 790.547 382.162C791.456 381.835 792.244 381.359 792.912 380.734C793.579 380.109 794.083 379.335 794.424 378.412L801.626 379.222C801.172 381.125 800.305 382.787 799.027 384.207C797.762 385.614 796.143 386.707 794.169 387.489C792.194 388.256 789.936 388.639 787.393 388.639ZM817.616 388.575C815.045 388.575 812.744 387.915 810.712 386.594C808.681 385.273 807.076 383.355 805.897 380.841C804.718 378.327 804.129 375.273 804.129 371.679C804.129 368.043 804.725 364.974 805.918 362.474C807.126 359.96 808.752 358.064 810.798 356.786C812.843 355.493 815.123 354.847 817.637 354.847C819.555 354.847 821.131 355.173 822.367 355.827C823.603 356.466 824.583 357.24 825.308 358.149C826.032 359.044 826.593 359.889 826.991 360.685H827.31V344.364H835.045V388H827.46V382.844H826.991C826.593 383.639 826.018 384.484 825.265 385.379C824.512 386.26 823.518 387.013 822.282 387.638C821.046 388.263 819.491 388.575 817.616 388.575ZM819.768 382.247C821.401 382.247 822.793 381.807 823.944 380.926C825.094 380.031 825.968 378.788 826.565 377.197C827.161 375.607 827.46 373.753 827.46 371.636C827.46 369.52 827.161 367.68 826.565 366.118C825.982 364.555 825.116 363.341 823.965 362.474C822.829 361.608 821.43 361.175 819.768 361.175C818.049 361.175 816.614 361.622 815.464 362.517C814.313 363.412 813.447 364.648 812.864 366.224C812.282 367.801 811.991 369.605 811.991 371.636C811.991 373.682 812.282 375.507 812.864 377.112C813.461 378.703 814.335 379.96 815.485 380.884C816.65 381.793 818.077 382.247 819.768 382.247ZM866.13 363.923L859.099 364.69C858.9 363.98 858.552 363.312 858.055 362.688C857.572 362.062 856.919 361.558 856.095 361.175C855.271 360.791 854.262 360.599 853.069 360.599C851.464 360.599 850.115 360.947 849.021 361.643C847.941 362.339 847.409 363.241 847.423 364.349C847.409 365.301 847.757 366.075 848.467 366.672C849.191 367.268 850.385 367.759 852.047 368.142L857.629 369.335C860.725 370.003 863.027 371.061 864.532 372.51C866.052 373.959 866.819 375.855 866.833 378.199C866.819 380.259 866.216 382.077 865.022 383.653C863.843 385.216 862.203 386.437 860.1 387.318C857.998 388.199 855.583 388.639 852.856 388.639C848.85 388.639 845.626 387.801 843.183 386.125C840.74 384.435 839.284 382.084 838.815 379.072L846.336 378.348C846.677 379.825 847.402 380.94 848.51 381.693C849.618 382.446 851.059 382.822 852.835 382.822C854.667 382.822 856.137 382.446 857.245 381.693C858.368 380.94 858.929 380.01 858.929 378.902C858.929 377.964 858.566 377.19 857.842 376.58C857.132 375.969 856.024 375.5 854.518 375.173L848.936 374.001C845.797 373.348 843.474 372.247 841.968 370.699C840.463 369.136 839.717 367.162 839.731 364.776C839.717 362.759 840.264 361.011 841.372 359.534C842.494 358.043 844.049 356.892 846.038 356.082C848.041 355.259 850.349 354.847 852.963 354.847C856.798 354.847 859.816 355.663 862.018 357.297C864.234 358.93 865.605 361.139 866.13 363.923Z" fill="url(#paint1_linear_290_642)"/>
<defs>
<linearGradient id="paint0_linear_290_642" x1="0" y1="333" x2="1411" y2="333" gradientUnits="userSpaceOnUse">
<stop stop-color="white"/>
<stop offset="1" stop-color="#E5EBF0"/>
</linearGradient>
<linearGradient id="paint1_linear_290_642" x1="788" y1="399" x2="788" y2="267" gradientUnits="userSpaceOnUse">
<stop stop-color="#666666"/>
<stop offset="0.9999" stop-color="#3A3A3A"/>
<stop offset="1" stop-color="#3A3A3A"/>
</linearGradient>
</defs>
</svg>
